<svg version="1.2" xmlns="http://www.w3.org/2000/svg" viewBox="0 0 24 24" width="24" height="24">
	<title>image</title>
	<defs>
		<clipPath clipPathUnits="userSpaceOnUse" id="cp1">
			<path d="m0 0h24v24h-24z"/>
		</clipPath>
	</defs>
	<style>
		<!-- .s0 { fill: #ff7700 }  -->
	</style>
	<g id="Clip-Path" clip-path="url(#cp1)">
		<g id="Layer">
			<path id="Layer" fill-rule="evenodd" class="s0" d="m19.9 21q-3.1 0-6.1-1.4-3.1-1.3-5.6-3.8-2.5-2.5-3.8-5.6-1.4-3-1.4-6.2 0-0.4 0.3-0.7 0.3-0.3 0.8-0.3h4q0.4 0 0.6 0.2 0.3 0.3 0.4 0.6l0.6 3.5q0 0.4 0 0.7-0.1 0.2-0.3 0.4l-2.4 2.5q0.5 0.9 1.2 1.8 0.6 0.9 1.5 1.6 0.7 0.8 1.6 1.5 0.9 0.6 1.8 1.2l2.3-2.4q0.3-0.2 0.6-0.3 0.4-0.1 0.8-0.1l3.4 0.7q0.3 0.2 0.6 0.4 0.2 0.3 0.2 0.6v4q0 0.5-0.3 0.8-0.3 0.3-0.8 0.3zm-0.9-9q0-2.9-2-5-2.1-2-5-2v-2q1.9 0 3.5 0.7 1.7 0.7 2.9 1.9 1.2 1.2 1.9 2.9 0.7 1.6 0.7 3.5zm-4 0q0-1.3-0.9-2.1-0.8-0.9-2.1-0.9v-2q2.1 0 3.5 1.5 1.5 1.4 1.5 3.5zm-9-3l1.7-1.7-0.4-2.3h-2.3q0.1 1 0.4 2 0.2 1 0.6 2zm9 8.9q1 0.5 2 0.7 1 0.3 2 0.3v-2.2l-2.4-0.4z"/>
		</g>
	</g>
</svg>