<svg version="1.2" xmlns="http://www.w3.org/2000/svg" viewBox="0 0 24 24" width="24" height="24">
	<title>image</title>
	<defs>
		<clipPath clipPathUnits="userSpaceOnUse" id="cp1">
			<path d="m0 0h24v24h-24z"/>
		</clipPath>
	</defs>
	<style>
		<!-- .s0 { fill: #ff7700 }  -->
	</style>
	<g id="Clip-Path" clip-path="url(#cp1)">
		<g id="Layer">
			<path id="Layer" fill-rule="evenodd" class="s0" d="m12 22q-2.1 0-3.9-0.8-1.8-0.8-3.2-2.1-1.3-1.4-2.1-3.2-0.8-1.8-0.8-3.9 0-2.1 0.8-3.9 0.8-1.8 2.1-3.2 1.4-1.3 3.2-2.1 1.8-0.8 3.9-0.8 2.1 0 3.9 0.8 1.8 0.8 3.2 2.1 1.3 1.4 2.1 3.2 0.8 1.8 0.8 3.9 0 2.1-0.8 3.9-0.8 1.8-2.1 3.2-1.4 1.3-3.2 2.1-1.8 0.8-3.9 0.8zm0-2q3.3 0 5.7-2.3 2.3-2.4 2.3-5.7 0-3.3-2.3-5.7-2.4-2.3-5.7-2.3-3.3 0-5.7 2.3-2.3 2.4-2.3 5.7 0 3.3 2.3 5.7 2.4 2.3 5.7 2.3zm-4.5-9l1.4-1.4 3.1 3.1 3.1-3.1 1.4 1.4-4.5 4.5z"/>
		</g>
	</g>
</svg>