<svg version="1.2" xmlns="http://www.w3.org/2000/svg" viewBox="0 0 159 17" width="159" height="17">
	<title>image</title>
	<style>
		.s0 { fill: #1f1a17 } 
		.s1 { fill: #ff7700 } 
		.s2 { fill: none;stroke: #ff7700;stroke-linecap: round } 
	</style>
	<path id="Layer" fill-rule="evenodd" class="s0" d="m-238.6 1.5l4.3 12.2h0.1l4.4-12.2h1.8l-5.3 14.5h-1.8l-5.4-14.5zm16.3 14.7q-1.6 0-2.8-0.7-1.1-0.7-1.7-1.9-0.6-1.3-0.6-3 0-1.6 0.6-2.9 0.6-1.3 1.7-2 1.1-0.8 2.6-0.8 0.8 0 1.7 0.3 0.8 0.3 1.5 1 0.7 0.6 1.1 1.6 0.4 1.1 0.4 2.6v0.7h-7.9q0 1.1 0.4 1.9 0.4 0.8 1.2 1.3 0.7 0.4 1.8 0.4 0.6 0 1.2-0.2 0.5-0.2 0.9-0.5 0.4-0.4 0.6-1l1.6 0.5q-0.2 0.8-0.9 1.4-0.6 0.6-1.4 1-0.9 0.3-2 0.3zm-3.4-5.1q0-0.1 0-0.2v-1q0-0.1 0-0.2h-0.5v1.4zm6.2-1.4q0-1-0.4-1.7-0.3-0.7-1-1.1-0.7-0.4-1.6-0.4-1 0-1.7 0.5-0.8 0.4-1.1 1.2-0.4 0.7-0.4 1.5zm4.2 6.3v-10.9h1.6v1.6h0.2q0.3-0.8 1-1.3 0.8-0.5 1.8-0.5 0.2 0 0.5 0 0.2 0 0.4 0v1.8q-0.1-0.1-0.4-0.1-0.3-0.1-0.6-0.1-0.8 0-1.5 0.4-0.6 0.3-0.9 0.9-0.4 0.6-0.4 1.3v6.9zm7.4 0v-10.9h1.7v10.9zm0.9-12.7q-0.5 0-0.9-0.4-0.3-0.3-0.3-0.8 0-0.4 0.3-0.8 0.4-0.3 0.9-0.3 0.5 0 0.8 0.3 0.4 0.4 0.4 0.8 0 0.5-0.4 0.8-0.3 0.4-0.8 0.4zm8.7 1.8v1.4h-2.4v9.5h-1.7v-9.5h-1.8v-1.4h1.8v-1.5q0-1 0.4-1.6 0.5-0.6 1.2-0.9 0.7-0.3 1.5-0.3 0.6 0 1 0.1 0.4 0.1 0.6 0.2l-0.5 1.4q-0.1 0-0.4-0.1-0.2-0.1-0.6-0.1-0.8 0-1.2 0.5-0.3 0.4-0.3 1.2v1.1zm3.4 15q-0.4 0-0.7-0.1-0.4 0-0.5-0.1l0.4-1.5q0.6 0.2 1.1 0.1 0.5 0 0.8-0.4 0.4-0.4 0.7-1.2l0.3-0.8-4-11h1.8l3 8.7h0.1l3-8.7h1.9l-4.7 12.5q-0.3 0.8-0.8 1.4-0.4 0.6-1 0.8-0.6 0.3-1.4 0.3zm14.7-18.6h2l4 6.7h0.2l4-6.7h2l-5.2 8.5v6h-1.8v-6zm17.2 14.8q-1.4 0-2.6-0.7-1.1-0.7-1.7-2-0.6-1.3-0.6-2.9 0-1.8 0.6-3 0.6-1.3 1.7-2 1.2-0.7 2.6-0.7 1.5 0 2.6 0.7 1.1 0.7 1.8 2 0.6 1.2 0.6 3 0 1.6-0.6 2.9-0.7 1.3-1.8 2-1.1 0.7-2.6 0.7zm0-1.5q1.2 0 1.9-0.6 0.7-0.6 1.1-1.5 0.3-1 0.3-2 0-1.1-0.3-2.1-0.4-0.9-1.1-1.5-0.7-0.6-1.9-0.6-1.1 0-1.8 0.6-0.7 0.6-1.1 1.5-0.3 1-0.3 2.1 0 1 0.3 2 0.4 0.9 1.1 1.5 0.7 0.6 1.8 0.6zm14.4-3.2v-6.5h1.7v11h-1.7v-1.9h-0.1q-0.4 0.8-1.2 1.4-0.8 0.6-2 0.6-1.1 0-1.9-0.5-0.8-0.4-1.2-1.3-0.5-0.9-0.5-2.3v-7h1.7v6.9q0 1.2 0.7 1.9 0.7 0.7 1.7 0.7 0.6 0 1.3-0.3 0.6-0.4 1.1-1 0.4-0.7 0.4-1.7zm4.8 4.5v-11h1.6v1.7h0.1q0.3-0.8 1.1-1.3 0.8-0.5 1.7-0.5 0.2 0 0.5 0 0.3 0 0.4 0v1.7q-0.1 0-0.4-0.1-0.3 0-0.6 0-0.8 0-1.4 0.3-0.6 0.4-1 0.9-0.4 0.6-0.4 1.3v7zm13.3 0v-14.6h5.1q1.5 0 2.5 0.5 1 0.5 1.5 1.4 0.5 0.9 0.5 2 0 0.9-0.4 1.5-0.3 0.6-0.8 1-0.6 0.3-1.2 0.5v0.2q0.7 0 1.4 0.4 0.6 0.4 1.1 1.2 0.4 0.8 0.4 2 0 1.1-0.5 2-0.5 0.8-1.5 1.3-1.1 0.6-2.8 0.6zm1.7-1.6h3.5q1.8 0 2.5-0.7 0.7-0.7 0.7-1.6 0-0.8-0.4-1.4-0.3-0.6-1-1-0.7-0.4-1.7-0.4h-3.6zm0-6.6h3.3q0.8 0 1.4-0.3 0.7-0.3 1.1-0.9 0.4-0.5 0.4-1.3 0-0.9-0.7-1.6-0.7-0.7-2.1-0.7h-3.4zm14.3 8.4q-1.1 0-1.9-0.4-0.9-0.4-1.3-1.1-0.5-0.8-0.5-1.8 0-1 0.3-1.6 0.4-0.5 1-0.9 0.6-0.3 1.4-0.5 0.7-0.1 1.5-0.2 1-0.2 1.6-0.2 0.6-0.1 0.9-0.3 0.3-0.1 0.3-0.5v-0.1q0-1-0.6-1.6-0.5-0.6-1.7-0.6-1.2 0-1.9 0.5-0.7 0.5-0.9 1.1l-1.6-0.5q0.4-1 1.1-1.6 0.7-0.5 1.6-0.8 0.8-0.2 1.6-0.2 0.6 0 1.2 0.1 0.7 0.2 1.4 0.5 0.6 0.4 1 1.2 0.5 0.8 0.5 2.1v7.2h-1.7v-1.5h-0.1q-0.2 0.3-0.6 0.7-0.4 0.5-1 0.7-0.7 0.3-1.6 0.3zm0.2-1.5q1 0 1.7-0.4 0.7-0.4 1-1 0.4-0.6 0.4-1.3v-1.5q-0.1 0.1-0.5 0.2-0.3 0.1-0.8 0.2-0.5 0.1-0.9 0.1-0.4 0.1-0.7 0.1-0.7 0.1-1.2 0.3-0.6 0.2-0.9 0.5-0.4 0.4-0.4 1.1 0 0.8 0.7 1.3 0.6 0.4 1.6 0.4zm9.5-5.3v6.6h-1.7v-10.9h1.7v1.7h0.1q0.4-0.9 1.2-1.4 0.7-0.5 2-0.5 1.1 0 1.9 0.5 0.8 0.4 1.3 1.3 0.5 0.9 0.5 2.3v7h-1.7v-6.9q0-1.2-0.7-2-0.6-0.7-1.8-0.7-0.8 0-1.4 0.4-0.7 0.3-1 1-0.4 0.7-0.4 1.6zm11.9 0.5l4.8-4.8h2.1l-4.7 4.6 5 6.3h-2.1l-4.1-5.2-1.2 1.1v4.1h-1.7v-14.6h1.7v8.5zm17.8 6.3q-1 0-1.8-0.4-0.9-0.4-1.4-1.1-0.5-0.8-0.5-1.8 0-1 0.4-1.6 0.4-0.5 1-0.9 0.6-0.3 1.3-0.5 0.8-0.1 1.6-0.2 1-0.2 1.6-0.2 0.6-0.1 0.9-0.3 0.3-0.1 0.3-0.5v-0.1q0-1-0.6-1.6-0.6-0.6-1.7-0.6-1.2 0-1.9 0.5-0.7 0.5-1 1.1l-1.6-0.5q0.5-1 1.2-1.6 0.7-0.5 1.5-0.8 0.9-0.2 1.7-0.2 0.5 0 1.2 0.1 0.7 0.2 1.3 0.5 0.7 0.4 1.1 1.2 0.4 0.8 0.4 2.1v7.2h-1.6v-1.5h-0.1q-0.2 0.3-0.6 0.7-0.4 0.5-1 0.7-0.7 0.3-1.7 0.3zm0.3-1.5q1 0 1.7-0.4 0.7-0.4 1-1 0.4-0.6 0.4-1.3v-1.5q-0.1 0.1-0.5 0.2-0.4 0.1-0.8 0.2-0.5 0.1-0.9 0.1-0.5 0.1-0.7 0.1-0.7 0.1-1.2 0.3-0.6 0.2-1 0.5-0.3 0.4-0.3 1.1 0 0.8 0.6 1.3 0.7 0.4 1.7 0.4zm12.2 1.5q-1.5 0-2.6-0.7-1.1-0.8-1.7-2-0.6-1.3-0.6-2.9 0-1.7 0.6-3 0.6-1.2 1.7-2 1.1-0.7 2.6-0.7 1.2 0 2.1 0.4 0.9 0.5 1.5 1.2 0.6 0.8 0.7 1.8h-1.6q-0.2-0.7-0.9-1.3-0.7-0.6-1.8-0.6-0.9 0-1.7 0.5-0.7 0.5-1.1 1.5-0.4 0.9-0.4 2.1 0 1.3 0.4 2.2 0.4 0.9 1.1 1.5 0.7 0.5 1.7 0.5 0.7 0 1.2-0.2 0.6-0.3 0.9-0.7 0.4-0.4 0.6-1h1.6q-0.1 0.9-0.7 1.7-0.5 0.8-1.4 1.2-1 0.5-2.2 0.5zm11.2 0q-1.5 0-2.6-0.7-1.1-0.8-1.7-2-0.6-1.3-0.6-2.9 0-1.7 0.6-3 0.6-1.2 1.7-2 1.1-0.7 2.6-0.7 1.1 0 2.1 0.4 0.9 0.5 1.5 1.2 0.6 0.8 0.7 1.8h-1.7q-0.2-0.7-0.8-1.3-0.7-0.6-1.8-0.6-1 0-1.7 0.5-0.7 0.5-1.2 1.5-0.4 0.9-0.4 2.1 0 1.3 0.4 2.2 0.4 0.9 1.2 1.5 0.7 0.5 1.7 0.5 0.7 0 1.2-0.2 0.5-0.3 0.9-0.7 0.4-0.4 0.5-1h1.7q-0.1 0.9-0.7 1.7-0.6 0.8-1.5 1.2-0.9 0.5-2.1 0.5zm11.2 0q-1.5 0-2.6-0.7-1.1-0.7-1.7-2-0.7-1.2-0.7-2.9 0-1.7 0.7-3 0.6-1.3 1.7-2 1.1-0.7 2.6-0.7 1.5 0 2.6 0.7 1.1 0.7 1.7 2 0.6 1.3 0.6 3 0 1.7-0.6 2.9-0.6 1.3-1.7 2-1.1 0.7-2.6 0.7zm0-1.5q1.1 0 1.8-0.6 0.8-0.6 1.1-1.5 0.4-0.9 0.4-2 0-1.1-0.4-2.1-0.3-0.9-1.1-1.5-0.7-0.6-1.8-0.6-1.1 0-1.9 0.6-0.7 0.6-1 1.5-0.4 1-0.4 2.1 0 1.1 0.4 2 0.3 0.9 1 1.5 0.8 0.6 1.9 0.6zm14.4-3.2v-6.4h1.6v10.9h-1.6v-1.9h-0.2q-0.3 0.8-1.1 1.4-0.9 0.6-2.1 0.6-1 0-1.8-0.4-0.8-0.5-1.3-1.4-0.4-0.9-0.4-2.3v-6.9h1.7v6.8q0 1.2 0.6 1.9 0.7 0.7 1.7 0.7 0.7 0 1.3-0.3 0.7-0.4 1.1-1 0.5-0.7 0.5-1.7zm6.4-2.1v6.6h-1.7v-10.9h1.6v1.7h0.2q0.4-0.9 1.1-1.4 0.8-0.5 2-0.5 1.2 0 2 0.5 0.8 0.4 1.3 1.3 0.4 0.9 0.4 2.3v7h-1.6v-6.9q0-1.2-0.7-2-0.7-0.7-1.8-0.7-0.8 0-1.5 0.4-0.6 0.3-1 1-0.3 0.7-0.3 1.6zm14.7-4.3v1.4h-2.3v6.3q0 0.8 0.2 1.1 0.2 0.4 0.6 0.5 0.3 0.1 0.7 0.1 0.2 0 0.4 0 0.2-0.1 0.3-0.1l0.3 1.5q-0.1 0.1-0.4 0.1-0.3 0.1-0.8 0.1-0.7 0-1.4-0.3-0.7-0.3-1.1-0.9-0.5-0.7-0.5-1.6v-6.8h-1.6v-1.4h1.6v-2.7h1.7v2.7zm-225.8 24l-4.1 10.9h-1.7l-4-10.9h1.8l3 8.6h0.1l3.1-8.6zm2.2 10.9v-10.9h1.6v10.9zm0.9-12.8q-0.5 0-0.8-0.3-0.4-0.3-0.4-0.8 0-0.5 0.4-0.8 0.3-0.3 0.8-0.3 0.5 0 0.8 0.3 0.4 0.3 0.4 0.8 0 0.5-0.4 0.8-0.3 0.3-0.8 0.3zm7.1 13q-1 0-1.9-0.4-0.8-0.4-1.3-1.1-0.5-0.8-0.5-1.8 0-1 0.4-1.6 0.3-0.5 0.9-0.9 0.7-0.3 1.4-0.5 0.8-0.1 1.5-0.2 1-0.2 1.6-0.2 0.7-0.1 0.9-0.3 0.3-0.1 0.3-0.5v-0.1q0-1-0.5-1.6-0.6-0.6-1.8-0.6-1.2 0-1.9 0.5-0.6 0.5-0.9 1.1l-1.6-0.5q0.4-1 1.1-1.6 0.7-0.5 1.6-0.8 0.8-0.2 1.7-0.2 0.5 0 1.2 0.1 0.7 0.2 1.3 0.5 0.7 0.4 1.1 1.2 0.4 0.8 0.4 2.1v7.2h-1.7v-1.5h-0.1q-0.1 0.3-0.5 0.7-0.4 0.5-1.1 0.7-0.6 0.3-1.6 0.3zm0.3-1.5q1 0 1.6-0.4 0.7-0.4 1.1-1 0.3-0.6 0.3-1.3v-1.5q-0.1 0.1-0.4 0.2-0.4 0.1-0.9 0.2-0.4 0.1-0.9 0.1-0.4 0.1-0.7 0.1-0.6 0.1-1.2 0.3-0.6 0.2-0.9 0.5-0.3 0.4-0.3 1.1 0 0.8 0.6 1.3 0.7 0.4 1.7 0.4zm23.2-13.3h1.7v9.6q0 1.5-0.7 2.7-0.7 1.2-1.9 1.9-1.3 0.6-3 0.6-1.7 0-3-0.6-1.3-0.7-2-1.9-0.7-1.2-0.7-2.7v-9.6h1.8v9.5q0 1.1 0.4 1.9 0.5 0.8 1.4 1.3 0.9 0.5 2.1 0.5 1.2 0 2.1-0.5 0.8-0.5 1.3-1.3 0.5-0.8 0.5-1.9zm5.2 14.6v-14.6h5q1.7 0 2.8 0.6 1 0.6 1.6 1.7 0.5 1 0.5 2.3 0 1.3-0.5 2.3-0.5 1.1-1.6 1.7-1.1 0.6-2.8 0.6h-3.2v5.4zm1.8-5.4v-1.5h-0.4v1.5zm3.1-1.5q1.2 0 1.9-0.4 0.7-0.4 1.1-1.1 0.3-0.7 0.3-1.6 0-0.9-0.3-1.6-0.4-0.6-1.1-1-0.7-0.4-1.9-0.4h-3.1v6.1zm9.6-7.7v14.6h-1.8v-14.6z"/>
	<path id="Layer" fill-rule="evenodd" class="s1" d="m7.4 1.5l-2.4 14.5h-3.1l2.4-14.5zm14.7 0l-2.4 14.5h-2.6l-4.8-9.2h-0.1l-1.6 9.2h-3l2.4-14.5h2.7l4.8 9.1h0.1l1.5-9.1zm9.7 4.2q0-0.9-0.5-1.4-0.6-0.5-1.7-0.5-0.7 0-1.3 0.2-0.5 0.2-0.9 0.6-0.3 0.4-0.4 0.9 0 0.3 0.1 0.6 0.1 0.3 0.4 0.5 0.3 0.2 0.7 0.4 0.4 0.2 0.8 0.3l1.3 0.3q0.9 0.2 1.6 0.5 0.8 0.4 1.3 0.9 0.5 0.5 0.7 1.2 0.2 0.7 0 1.6-0.2 1.4-1 2.4-0.9 0.9-2.2 1.5-1.4 0.5-3.1 0.5-1.8 0-3-0.5-1.2-0.6-1.8-1.6-0.5-1.1-0.3-2.7h3q-0.1 0.8 0.2 1.3 0.3 0.4 0.9 0.7 0.6 0.2 1.4 0.2 0.8 0 1.4-0.2 0.6-0.2 1-0.6 0.3-0.4 0.4-1 0.1-0.5-0.1-0.8-0.3-0.3-0.8-0.6-0.5-0.2-1.2-0.4l-1.6-0.4q-1.7-0.4-2.6-1.4-0.9-0.9-0.7-2.5 0.3-1.4 1.1-2.3 0.9-1 2.2-1.6 1.4-0.5 3-0.5 1.6 0 2.7 0.5 1.1 0.6 1.6 1.6 0.6 1 0.4 2.3zm4.9-1.7l0.4-2.5h12l-0.5 2.5h-4.4l-2 12h-3l2-12zm12.6 12h-3.3l7.4-14.5h4l2.6 14.5h-3.3l-0.5-3.3h1.2l0.4-2.4h-2l-0.9-5.5h-0.1l-2.7 5.5h-2l-0.5 2.4h1.3zm1.7-3.3l1.2-2.4h3.6l0.4 2.4zm25.4-11.3l-2.4 14.6h-2.6l-4.8-9.2h-0.2l-1.5 9.2h-3.1l2.5-14.6h2.7l4.7 9.2h0.2l1.5-9.2zm1.5 2.6l0.5-2.6h11.9l-0.4 2.6h-4.5l-2 12h-3l2-12zm11.9 12l2.4-14.6h3.1l-2 12h6.2l-0.4 2.6zm11.1-14.6h3.4l2.3 6.3h0.1l4.4-6.3h3.4l-6.8 9.4-0.9 5.2h-3l0.8-5.2z"/>
	<path id="Layer" fill-rule="evenodd" class="s2" d="m121 2h37"/>
	<path id="Layer" fill-rule="evenodd" class="s2" d="m119 9h30"/>
	<path id="Layer" fill-rule="evenodd" class="s2" d="m117 15.5h23"/>
</svg>