<svg version="1.2" xmlns="http://www.w3.org/2000/svg" viewBox="0 0 65 18" width="65" height="18">
	<title>image</title>
	<style>
		.s0 { fill: #706f6e } 
		.s1 { fill: #27803b } 
		.s2 { fill: #e9661c } 
	</style>
	<path id="Layer" fill-rule="evenodd" class="s0" d="m49.5 17.2h-3.5l4.8-17.2h3.4zm-1.6-15.4l-1.9 6.9q-0.2 0.7-0.9 1.2-0.6 0.5-1.3 0.5h-15.4l-1.9 6.9h-3.4l2.8-10.3h3.4 13.7l1-3.6h-17.1l0.9-3.3h18.8q0.8 0 1.2 0.5 0.3 0.4 0.1 1.2zm-26.8 14.3c-0.2 0.7-0.9 1.2-1.6 1.2h-17.6q-0.7 0-1.1-0.5-0.3-0.5-0.1-1.2l4.3-15.5h3.4l-3.9 13.8h13.8l3.8-13.8h3.4z"/>
	<path id="Layer" class="s1" d="m60.1 0l4.4 8.6-9.1 8.7z"/>
	<path id="Layer" class="s2" d="m57.1 0l4.3 8.6-9.1 8.7z"/>
</svg>