<svg version="1.2" xmlns="http://www.w3.org/2000/svg" viewBox="0 0 20 20" width="20" height="20">
	<title>image</title>
	<defs>
		<clipPath clipPathUnits="userSpaceOnUse" id="cp1">
			<path d="m0 0h20v20h-20z"/>
		</clipPath>
	</defs>
	<style>
		<!-- .s0 { fill: #e47718 }  -->
	</style>
	<g id="Clip-Path" clip-path="url(#cp1)">
		<g id="Layer">
			<path id="Layer" fill-rule="evenodd" class="s0" d="m10 18.3q-1.7 0-3.3-0.6-1.5-0.7-2.6-1.8-1.1-1.1-1.8-2.7-0.6-1.5-0.6-3.2 0-1.7 0.6-3.3 0.7-1.5 1.8-2.6 1.1-1.1 2.6-1.8 1.6-0.6 3.3-0.6 1.7 0 3.2 0.6 1.6 0.7 2.7 1.8 1.1 1.1 1.8 2.6 0.6 1.6 0.6 3.3 0 1.7-0.6 3.2-0.7 1.6-1.8 2.7-1.1 1.1-2.7 1.8-1.5 0.6-3.2 0.6zm-0.8-7.5h1.6v-5h-1.6zm0.8 3.4q0.4 0 0.6-0.3 0.2-0.2 0.2-0.6 0-0.3-0.2-0.6-0.2-0.2-0.6-0.2-0.4 0-0.6 0.2-0.2 0.3-0.2 0.6 0 0.4 0.2 0.6 0.2 0.3 0.6 0.3z"/>
		</g>
	</g>
</svg>