<svg version="1.2" xmlns="http://www.w3.org/2000/svg" viewBox="0 0 32 32" width="32" height="32">
	<title>image</title>
	<style>
		<!-- .s0 { fill: #ff7700 }  -->
	</style>
	<path id="Layer" fill-rule="evenodd" class="s0" d="m29.5 32l-11.2-11.2q-1.3 1.1-3.1 1.7-1.7 0.6-3.6 0.6-4.9 0-8.2-3.3-3.4-3.4-3.4-8.2 0-4.9 3.4-8.2 3.3-3.4 8.2-3.4 4.8 0 8.2 3.4 3.3 3.3 3.3 8.2 0 1.9-0.6 3.6-0.6 1.8-1.7 3.1l11.2 11.2zm-18-12.4q3.4 0 5.7-2.4 2.3-2.3 2.3-5.6 0-3.4-2.3-5.7-2.3-2.3-5.7-2.3-3.3 0-5.6 2.3-2.4 2.3-2.4 5.7 0 3.3 2.4 5.6 2.3 2.4 5.6 2.4z"/>
</svg>