<svg width="32" height="32" viewBox="0 0 32 32" fill="none" xmlns="http://www.w3.org/2000/svg">
<mask id="mask0_626_747" style="mask-type:alpha" maskUnits="userSpaceOnUse" x="0" y="0" width="32" height="32">
<rect width="32" height="32"/>
</mask>
<g mask="url(#mask0_626_747)">
<path d="M18.3891 16.2557C20.1891 14.9963 21.6002 13.6092 22.6224 12.0943C23.6446 10.5797 24.1557 9.05934 24.1557 7.53334C24.1557 6.67401 24.0131 6.01845 23.7278 5.56667C23.4426 5.11489 23.0556 4.889 22.5667 4.889C21.3741 4.889 20.3482 5.81301 19.4891 7.66101C18.6297 9.50923 18.2001 11.6556 18.2001 14.1C18.2001 14.5 18.2131 14.8797 18.2391 15.239C18.2649 15.5981 18.3149 15.937 18.3891 16.2557ZM4.00008 28V25.7777H6.22241V28H4.00008ZM9.44441 28V25.7777H11.6667V28H9.44441ZM14.8891 28V25.7777H17.1111V28H14.8891ZM20.3334 28V25.7777H22.5557V28H20.3334ZM25.7778 28V25.7777H28.0001V28H25.7778ZM4.22241 22.5777L2.66675 21.0223L4.80008 18.889L2.66675 16.7557L4.22241 15.2L6.35575 17.3333L8.48908 15.2L10.0444 16.7557L7.91108 18.889L10.0444 21.0223L8.48908 22.5777L6.35575 20.4443L4.22241 22.5777ZM20.6001 21.3333C19.9039 21.3333 19.2742 21.187 18.7111 20.8943C18.1482 20.6019 17.6667 20.1593 17.2667 19.5667C16.7112 19.8778 16.139 20.1667 15.5501 20.4333C14.9612 20.7 14.3482 20.9556 13.7111 21.2L12.9334 19.1223C13.5556 18.8852 14.1501 18.6389 14.7167 18.3833C15.2834 18.1278 15.8334 17.8481 16.3667 17.5443C16.2261 17.0408 16.1242 16.4963 16.0611 15.911C15.9982 15.3259 15.9667 14.7 15.9667 14.0333C15.9667 10.8038 16.589 8.10189 17.8334 5.92767C19.0779 3.75367 20.6556 2.66667 22.5667 2.66667C23.7074 2.66667 24.626 3.113 25.3224 4.00567C26.0186 4.89812 26.3667 6.11101 26.3667 7.64434C26.3667 9.58523 25.739 11.489 24.4834 13.3557C23.2279 15.2223 21.4779 16.9001 19.2334 18.389C19.4334 18.6335 19.6501 18.8168 19.8834 18.939C20.1167 19.0612 20.3667 19.1223 20.6334 19.1223C21.3445 19.1223 22.0982 18.7779 22.8944 18.089C23.6909 17.4001 24.4297 16.4408 25.1111 15.211L27.1444 16.1667C27.0186 16.6778 26.9372 17.1703 26.9001 17.6443C26.863 18.1186 26.8852 18.6149 26.9667 19.1333C27.2483 18.9927 27.5539 18.7927 27.8834 18.5333C28.213 18.274 28.5333 17.9518 28.8444 17.5667L30.6111 18.9333C30.0482 19.6593 29.4186 20.2408 28.7224 20.6777C28.026 21.1148 27.3778 21.3333 26.7778 21.3333C26.2666 21.3333 25.8389 21.1611 25.4944 20.8167C25.15 20.4722 24.9149 19.9667 24.7891 19.3C24.152 19.9593 23.4779 20.463 22.7667 20.811C22.0556 21.1592 21.3334 21.3333 20.6001 21.3333Z"/>
</g>
</svg>
