<svg width="32" height="32" viewBox="0 0 32 32" fill="none" xmlns="http://www.w3.org/2000/svg">
<mask id="mask0_626_727" style="mask-type:alpha" maskUnits="userSpaceOnUse" x="0" y="0" width="32" height="32">
<rect width="32" height="32"/>
</mask>
<g mask="url(#mask0_626_727)">
<path d="M16.071 5.84767C18.4479 5.84767 20.6887 6.36012 22.7933 7.385C24.8982 8.40989 26.6423 9.88412 28.0257 11.8077C28.1639 12.007 28.2127 12.1852 28.172 12.3423C28.1313 12.4992 28.0457 12.6331 27.915 12.744C27.7843 12.8507 27.6319 12.899 27.4577 12.889C27.2837 12.879 27.1365 12.7801 27.016 12.5923C25.7765 10.8375 24.1868 9.49189 22.247 8.55567C20.3072 7.61945 18.2486 7.145 16.071 7.13234C13.8852 7.12811 11.8349 7.59789 9.92001 8.54167C8.00512 9.48523 6.43146 10.8417 5.19901 12.611C5.05346 12.8103 4.89479 12.9232 4.72301 12.9497C4.55123 12.9761 4.39668 12.9456 4.25934 12.858C4.10646 12.7747 4.01401 12.6478 3.98201 12.4773C3.94979 12.3069 3.97912 12.1478 4.07001 12C5.43112 10.0418 7.16901 8.52689 9.28368 7.45534C11.3983 6.38356 13.6608 5.84767 16.071 5.84767ZM16.071 9.06334C19.0901 9.06334 21.6707 10.0811 23.8127 12.1167C25.9547 14.1522 27.0257 16.6467 27.0257 19.6C27.0257 20.7062 26.6339 21.6488 25.8503 22.4277C25.067 23.2063 24.1121 23.5957 22.9857 23.5957C21.8441 23.5957 20.8706 23.2178 20.065 22.462C19.2595 21.7064 18.8567 20.7818 18.8567 19.688C18.8567 18.916 18.5862 18.2625 18.0453 17.7273C17.5042 17.1922 16.8482 16.9247 16.0773 16.9247C15.3147 16.9247 14.6592 17.1922 14.111 17.7273C13.5626 18.2625 13.2883 18.916 13.2883 19.688C13.2883 21.918 13.9345 23.7906 15.2267 25.3057C16.5191 26.821 18.2802 27.851 20.51 28.3957C20.7118 28.435 20.8453 28.5258 20.9107 28.668C20.976 28.8104 20.9918 28.9619 20.958 29.1223C20.9158 29.2901 20.8325 29.423 20.708 29.521C20.5836 29.619 20.4028 29.6438 20.1657 29.5953C17.6683 29.0467 15.6838 27.8826 14.212 26.103C12.74 24.3232 12.004 22.1849 12.004 19.688C12.004 18.5627 12.4012 17.6088 13.1957 16.8263C13.9901 16.0439 14.9507 15.6527 16.0773 15.6527C17.2038 15.6527 18.1665 16.0335 18.9653 16.795C19.764 17.5566 20.1633 18.4916 20.1633 19.6C20.1633 20.3613 20.4409 21.0053 20.996 21.532C21.5513 22.0589 22.2146 22.3223 22.9857 22.3223C23.7417 22.3223 24.3893 22.0589 24.9287 21.532C25.468 21.0053 25.7377 20.3613 25.7377 19.6C25.7377 17.0022 24.7901 14.82 22.895 13.0533C20.9999 11.2867 18.7227 10.4033 16.0633 10.4033C13.404 10.4033 11.1341 11.3003 9.25368 13.0943C7.37323 14.8881 6.43301 17.0886 6.43301 19.6957C6.43301 20.4132 6.49146 21.1717 6.60834 21.971C6.72523 22.7703 6.94434 23.6082 7.26568 24.4847C7.33434 24.6922 7.33568 24.8646 7.26968 25.0017C7.20368 25.1388 7.09368 25.2416 6.93968 25.31C6.76257 25.3787 6.58979 25.3842 6.42134 25.3267C6.25312 25.2693 6.12634 25.1321 6.04101 24.915C5.77923 24.1846 5.56868 23.3779 5.40934 22.495C5.25023 21.6121 5.17068 20.6765 5.17068 19.688C5.17068 16.7582 6.24246 14.255 8.38601 12.1783C10.5296 10.1017 13.0912 9.06334 16.071 9.06334ZM16.0773 2.55234C17.5311 2.55234 18.9531 2.72612 20.3433 3.07367C21.7338 3.42123 23.0687 3.92778 24.348 4.59334C24.5473 4.68934 24.6636 4.82111 24.6967 4.98867C24.7298 5.15623 24.712 5.30911 24.6433 5.44734C24.5622 5.58556 24.4447 5.69367 24.2907 5.77167C24.1369 5.84989 23.965 5.83678 23.775 5.73234C22.5843 5.12811 21.3385 4.66167 20.0373 4.333C18.7362 4.00434 17.4162 3.84 16.0773 3.84C14.7291 3.84 13.4096 3.99534 12.1187 4.306C10.8276 4.61667 9.59312 5.09211 8.41534 5.73234C8.21512 5.83678 8.03857 5.86545 7.88568 5.81834C7.73301 5.77123 7.61234 5.67489 7.52368 5.52934C7.4519 5.41534 7.43179 5.26701 7.46334 5.08434C7.4949 4.90145 7.58768 4.76834 7.74168 4.685C9.01768 3.95745 10.3655 3.42012 11.785 3.073C13.2046 2.72589 14.6353 2.55234 16.0773 2.55234ZM16.0773 12.3667C18.1418 12.3667 19.9147 13.0668 21.396 14.467C22.8776 15.867 23.6183 17.578 23.6183 19.6C23.6183 19.812 23.5659 19.9841 23.461 20.1163C23.3559 20.2483 23.1975 20.3143 22.9857 20.3143C22.7686 20.3143 22.6019 20.2483 22.4857 20.1163C22.3697 19.9841 22.3117 19.812 22.3117 19.6C22.3117 17.9198 21.6998 16.5051 20.476 15.356C19.2525 14.2069 17.7862 13.6323 16.0773 13.6323C14.3642 13.6323 12.9038 14.2194 11.696 15.3937C10.4885 16.5679 9.88468 17.9993 9.88468 19.688C9.88468 21.4718 10.1755 23.0142 10.757 24.3153C11.3386 25.6165 12.2528 26.9163 13.4997 28.215C13.6452 28.3606 13.7175 28.513 13.7163 28.6723C13.715 28.8314 13.6637 28.9701 13.5623 29.0883C13.4463 29.2295 13.2836 29.3017 13.074 29.305C12.8642 29.3083 12.6866 29.2299 12.541 29.0697C11.2448 27.7381 10.2633 26.3195 9.59668 24.8137C8.93001 23.3079 8.59668 21.5993 8.59668 19.688C8.59668 17.6493 9.32423 15.9195 10.7793 14.4983C12.2345 13.0772 14.0005 12.3667 16.0773 12.3667ZM16.0627 18.945C16.2622 18.945 16.4176 19.0103 16.5287 19.141C16.64 19.2719 16.6957 19.4332 16.6957 19.625C16.6957 21.4728 17.3218 22.9183 18.574 23.9617C19.8262 25.005 21.3113 25.5267 23.0293 25.5267C23.226 25.5267 23.458 25.5092 23.7253 25.4743C23.9929 25.4397 24.2569 25.4127 24.5173 25.3933C24.7 25.3805 24.8543 25.4259 24.9803 25.5297C25.1066 25.6337 25.1719 25.7621 25.1763 25.915C25.1892 26.0921 25.1535 26.2346 25.069 26.3423C24.9848 26.4501 24.8676 26.5271 24.7173 26.5733C24.3676 26.6845 24.0365 26.7498 23.724 26.7693C23.4113 26.7889 23.1798 26.7987 23.0293 26.7987C20.9451 26.7987 19.1575 26.1567 17.6663 24.8727C16.1755 23.5889 15.43 21.8397 15.43 19.625C15.43 19.4332 15.4857 19.2719 15.597 19.141C15.7081 19.0103 15.8633 18.945 16.0627 18.945Z"/>
</g>
</svg>
